<svg xmlns="http://www.w3.org/2000/svg" xmlns:xlink="http://www.w3.org/1999/xlink" width="480" zoomAndPan="magnify" viewBox="0 0 360 143.999998" height="192" preserveAspectRatio="xMidYMid meet" version="1.0"><defs><clipPath id="72433bd26d"><path d="M 14.398438 14.398438 L 176 14.398438 L 176 131.398438 L 14.398438 131.398438 Z M 14.398438 14.398438 " clip-rule="nonzero"/></clipPath><clipPath id="91dbd03be9"><path d="M 149 63 L 340.648438 63 L 340.648438 89 L 149 89 Z M 149 63 " clip-rule="nonzero"/></clipPath></defs><rect x="-36" width="432" fill="#ffffff" y="-14.4" height="172.799997" fill-opacity="1"/><rect x="-36" width="432" fill="#ffffff" y="-14.4" height="172.799997" fill-opacity="1"/><g clip-path="url(#72433bd26d)"><path fill="#1e4876" d="M 156.242188 96.472656 C 140.945312 95.160156 135.175781 105.960938 120.46875 105.359375 C 107.761719 104.84375 95.191406 95.601562 97.1875 79.128906 C 98.8125 65.714844 108.648438 52.101562 121.917969 50.484375 C 140.996094 48.15625 148.386719 58.425781 150.722656 57.925781 C 153.0625 57.429688 134.914062 14.851562 126.417969 14.441406 C 89.769531 15.082031 7.0625 104.785156 14.925781 121.035156 C 16.828125 124.96875 42.523438 109.386719 73.441406 110.585938 C 101.472656 111.671875 163.3125 134.621094 174.652344 131.003906 C 179.90625 129.332031 166.75 97.371094 156.242188 96.472656 " fill-opacity="1" fill-rule="nonzero"/></g><path fill="#323131" d="M 137.019531 67.910156 C 134.679688 69.5625 132.96875 71.707031 131.007812 73.523438 C 131.007812 73.523438 129.742188 74.679688 128.347656 75.617188 L 141.386719 92.515625 L 129.929688 92.515625 L 120.371094 78.972656 L 116.953125 92.515625 L 108.789062 92.515625 L 116.636719 60.480469 L 124.804688 60.480469 C 124.804688 60.480469 121.699219 72.3125 121.511719 72.367188 C 126.070312 71.15625 131.070312 60.480469 142.589844 59.761719 L 143.921875 65.433594 C 139.109375 66.480469 137.019531 67.910156 137.019531 67.910156 " fill-opacity="1" fill-rule="nonzero"/><g clip-path="url(#91dbd03be9)"><path fill="#1e4876" d="M 339.351562 68.839844 L 340.453125 64.183594 L 322.8125 64.183594 L 316.882812 88.332031 L 334.953125 88.332031 L 336.054688 83.71875 L 324.152344 83.71875 L 325.535156 78.148438 L 336.675781 78.148438 L 337.773438 73.535156 L 326.636719 73.535156 L 327.785156 68.839844 Z M 300.828125 64.183594 L 294.660156 64.183594 L 288.730469 88.332031 L 306.464844 88.332031 L 307.613281 83.71875 L 296.046875 83.71875 Z M 275.207031 76.238281 C 274.203125 80.4375 270.761719 83.925781 265.265625 83.925781 C 259.765625 83.925781 258.046875 80.4375 259.097656 76.238281 C 260.101562 71.957031 263.78125 68.546875 269.039062 68.546875 C 274.296875 68.546875 276.257812 71.957031 275.207031 76.238281 M 270.1875 63.808594 C 261.058594 63.808594 254.460938 69.210938 252.738281 76.238281 C 250.96875 83.429688 254.988281 88.667969 264.117188 88.667969 C 273.246094 88.667969 279.796875 83.429688 281.5625 76.238281 C 283.285156 69.210938 279.320312 63.808594 270.1875 63.808594 M 235.246094 73.535156 L 224.253906 73.535156 L 226.546875 64.183594 L 220.378906 64.183594 L 214.453125 88.332031 L 220.667969 88.332031 L 223.152344 78.148438 L 234.148438 78.148438 L 231.664062 88.332031 L 237.828125 88.332031 L 243.707031 64.183594 L 237.542969 64.183594 Z M 194.378906 73.453125 L 189.3125 64.183594 L 182.140625 64.183594 L 190.027344 78.359375 L 187.589844 88.332031 L 193.757812 88.332031 L 196.195312 78.359375 L 210.964844 64.183594 L 203.796875 64.183594 Z M 149.828125 88.332031 L 167.898438 88.332031 L 169 83.71875 L 157.097656 83.71875 L 158.480469 78.148438 L 169.621094 78.148438 L 170.71875 73.535156 L 159.582031 73.535156 L 160.730469 68.839844 L 172.296875 68.839844 L 173.394531 64.183594 L 155.757812 64.183594 Z M 149.828125 88.332031 " fill-opacity="1" fill-rule="nonzero"/></g><path fill="#323131" d="M 330.136719 100.515625 L 330.136719 97.355469 C 328.308594 96.414062 325.902344 96 323.664062 96 C 321.367188 96.019531 318.941406 96.453125 317.152344 97.355469 L 317.152344 108.683594 C 318.996094 109.601562 321.40625 110.035156 323.664062 110.035156 C 325.941406 110.035156 328.347656 109.585938 330.136719 108.683594 L 330.136719 105.519531 L 325.882812 105.519531 L 325.882812 106.78125 C 325.203125 107.007812 324.433594 107.101562 323.644531 107.101562 C 322.835938 107.101562 322.0625 106.988281 321.40625 106.78125 L 321.40625 104.390625 L 328.214844 104.390625 L 328.214844 101.417969 L 321.40625 101.417969 L 321.40625 99.234375 C 322.101562 99.03125 322.855469 98.933594 323.644531 98.933594 C 324.453125 98.933594 325.226562 99.046875 325.882812 99.234375 L 325.882812 100.515625 Z M 306.507812 101.757812 C 306 102.019531 305.378906 102.152344 304.25 102.152344 L 302.386719 102.152344 L 302.386719 98.898438 L 304.308594 98.898438 C 305.4375 98.898438 305.960938 98.953125 306.507812 99.292969 Z M 310.722656 102.511719 L 310.722656 97.917969 C 309.140625 96.753906 307.1875 96.246094 304.289062 96.246094 L 298.15625 96.246094 L 298.15625 109.792969 L 302.445312 109.792969 L 302.445312 105.050781 L 304.175781 105.050781 C 305.265625 105.050781 305.945312 105.183594 306.507812 105.464844 L 306.507812 109.792969 L 310.800781 109.792969 L 310.800781 104.429688 C 310.175781 103.996094 309.140625 103.640625 308.050781 103.453125 C 309.179688 103.226562 310.085938 102.945312 310.722656 102.511719 M 287.324219 102.71875 L 283.183594 102.71875 L 283.183594 99.367188 C 283.765625 99.105469 284.480469 98.972656 285.253906 98.972656 C 286.023438 98.972656 286.757812 99.105469 287.324219 99.367188 Z M 278.949219 97.601562 L 278.949219 109.792969 L 283.183594 109.792969 L 283.183594 105.707031 L 287.324219 105.707031 L 287.324219 109.792969 L 291.554688 109.792969 L 291.554688 97.601562 C 289.957031 96.566406 287.585938 96 285.273438 96 C 282.957031 96 280.550781 96.585938 278.949219 97.601562 M 268.269531 106.480469 C 267.574219 106.761719 266.578125 106.914062 265.390625 106.953125 L 265.390625 96.246094 L 261.253906 96.246094 L 261.253906 106.953125 C 260.046875 106.914062 259.050781 106.742188 258.375 106.480469 L 258.375 96.246094 L 254.253906 96.246094 L 254.253906 108.378906 C 256.738281 109.546875 259.785156 110.054688 263.320312 110.054688 C 266.878906 110.054688 269.90625 109.507812 272.390625 108.378906 L 272.390625 96.246094 L 268.269531 96.246094 Z M 236.175781 99.632812 L 240.015625 99.632812 L 240.015625 109.792969 L 244.304688 109.792969 L 244.304688 99.632812 L 248.144531 99.632812 L 248.144531 96.246094 L 236.175781 96.246094 Z M 217.707031 97.355469 L 217.707031 109.792969 L 221.960938 109.792969 L 221.960938 105.125 L 228.773438 105.125 L 228.773438 101.90625 L 221.960938 101.90625 L 221.960938 99.367188 C 222.636719 99.144531 223.316406 99.066406 224.105469 99.066406 C 224.914062 99.066406 225.609375 99.144531 226.25 99.367188 L 226.25 100.78125 L 230.503906 100.78125 L 230.503906 97.355469 C 228.679688 96.414062 226.457031 96 224.125 96 C 221.734375 96 219.515625 96.453125 217.707031 97.355469 M 207.046875 106.460938 C 206.371094 106.742188 205.578125 106.914062 204.621094 106.914062 C 203.660156 106.914062 202.851562 106.742188 202.191406 106.460938 L 202.191406 99.558594 C 202.867188 99.292969 203.679688 99.125 204.621094 99.125 C 205.597656 99.125 206.386719 99.292969 207.046875 99.558594 Z M 197.941406 97.636719 L 197.941406 108.378906 C 199.765625 109.472656 202.152344 110.035156 204.636719 110.035156 C 207.121094 110.015625 209.511719 109.472656 211.300781 108.378906 L 211.300781 97.636719 C 209.472656 96.527344 207.085938 96 204.636719 96 C 202.117188 96 199.746094 96.566406 197.941406 97.636719 M 183.023438 99.253906 C 183.738281 99.03125 184.378906 98.953125 185.152344 98.953125 C 185.980469 98.953125 186.617188 99.03125 187.277344 99.253906 L 187.277344 100.515625 L 191.53125 100.515625 L 191.53125 97.410156 C 189.683594 96.433594 187.484375 96 185.171875 96 C 182.816406 96 180.578125 96.453125 178.773438 97.410156 L 178.773438 103.453125 L 187.296875 105.070312 L 187.296875 106.78125 C 186.617188 107.007812 185.886719 107.101562 185.152344 107.101562 C 184.417969 107.101562 183.664062 106.988281 183.007812 106.78125 L 183.007812 105.519531 L 178.753906 105.519531 L 178.753906 108.625 C 180.578125 109.585938 182.894531 110.015625 185.152344 110.035156 C 187.410156 110.035156 189.742188 109.566406 191.546875 108.625 L 191.546875 102.699219 L 183.023438 101.082031 Z M 183.023438 99.253906 " fill-opacity="1" fill-rule="nonzero"/><path fill="#ffffff" d="M 125.328125 20.921875 C 115.210938 20.261719 95.476562 33.839844 91.667969 36.882812 C 90.46875 37.84375 100.316406 32.875 104.796875 31.382812 C 106.273438 30.890625 100.121094 36.421875 101.472656 35.796875 C 106.226562 33.613281 111.664062 29.1875 114.523438 28.234375 C 117.382812 27.28125 107.328125 38.28125 108.65625 37.84375 C 110.570312 37.214844 120.082031 27.949219 122.503906 27.554688 C 123.859375 27.332031 120.929688 31.390625 122.070312 31.136719 C 122.496094 31.042969 126.191406 24.019531 131.503906 29.316406 C 133.988281 31.792969 129.726562 21.207031 125.328125 20.921875 " fill-opacity="1" fill-rule="nonzero"/></svg>